<mxfile host="65bd71144e">
    <diagram id="qieUSZDHri-mmKk-7B0o" name="Page-1">
        <mxGraphModel dx="601" dy="516" grid="1" gridSize="10" guides="1" tooltips="1" connect="1" arrows="1" fold="1" page="1" pageScale="1" pageWidth="827" pageHeight="1169" math="0" shadow="0">
            <root>
                <mxCell id="0"/>
                <mxCell id="1" parent="0"/>
                <mxCell id="2" value="NoteBook" style="swimlane;fontStyle=0;childLayout=stackLayout;horizontal=1;startSize=26;fillColor=none;horizontalStack=0;resizeParent=1;resizeParentMax=0;resizeLast=0;collapsible=1;marginBottom=0;" vertex="1" parent="1">
                    <mxGeometry x="240" y="210" width="140" height="170" as="geometry"/>
                </mxCell>
                <mxCell id="3" value="- notes&#10;&#10;+ add()&#10;+ add_tags()&#10;+ remove()&#10;+ search_all()&#10;+ search_by_tag()&#10;+ sort_by_tags()&#10;- get_note_by_id()&#10;&#10;&#10;" style="text;strokeColor=none;fillColor=none;align=left;verticalAlign=top;spacingLeft=4;spacingRight=4;overflow=hidden;rotatable=0;points=[[0,0.5],[1,0.5]];portConstraint=eastwest;" vertex="1" parent="2">
                    <mxGeometry y="26" width="140" height="144" as="geometry"/>
                </mxCell>
                <mxCell id="6" value="notebook" style="swimlane;" vertex="1" parent="1">
                    <mxGeometry x="190" y="90" width="240" height="400" as="geometry"/>
                </mxCell>
            </root>
        </mxGraphModel>
    </diagram>
</mxfile>